<svg width="388.86867675781247px" height="122px" xmlns="http://www.w3.org/2000/svg" viewBox="55.56566162109377 14 388.86867675781247 122" style="background: rgba(0, 0, 0, 0);" preserveAspectRatio="xMidYMid"><defs><filter id="editing-extrusion" x="-100%" y="-100%" width="300%" height="300%"><feFlood result="color1" flood-color="#444"></feFlood><feConvolveMatrix order="8,8" divisor="1" kernelMatrix="1 0 0 0 0 0 0 0 0 1 0 0 0 0 0 0 0 0 1 0 0 0 0 0 0 0 0 1 0 0 0 0 0 0 0 0 1 0 0 0 0 0 0 0 0 1 0 0 0 0 0 0 0 0 1 0 0 0 0 0 0 0 0 1" in="SourceAlpha" result="extrude"></feConvolveMatrix><feComposite in="color1" in2="extrude" result="comp-extrude" operator="in"></feComposite><feOffset dx="4" dy="4" in="comp-extrude" result="offset-extrude"></feOffset><feMerge><feMergeNode in="offset-extrude"></feMergeNode><feMergeNode in="SourceGraphic"></feMergeNode></feMerge></filter></defs><g filter="url(#editing-extrusion)"><g transform="translate(116.81410026550293, 98.68000030517578)"><path d="M29.18 1.28L29.18 1.28L29.18 1.28Q20.99 1.28 20.22-10.37L20.22-10.37L9.22-10.37L9.22-10.37Q7.94-7.42 7.04-4.86L7.04-4.86L5.38 0L-3.58 0L16.58-42.24L30.34-42.24L33.02-11.14L33.02-11.14Q33.66-4.42 36.22-2.43L36.22-2.43L36.22-2.43Q34.37 1.28 29.18 1.28ZM14.72-23.17L11.20-15.04L20.03-15.04L19.26-31.49L19.26-33.22L14.72-23.17ZM39.10-3.07L39.10-3.07L47.04-44.80L60.03-46.08L58.05-36.29L58.05-36.29Q57.34-33.28 56.45-31.17L56.45-31.17L56.45-31.17Q57.86-32.96 60.93-33.66L60.93-33.66L60.93-33.66Q61.82-33.92 62.91-33.92L62.91-33.92L62.91-33.92Q68.86-33.92 72.13-30.30L72.13-30.30L72.13-30.30Q75.39-26.69 75.39-19.71L75.39-19.71L75.39-19.71Q75.39-10.62 70.21-4.93L70.21-4.93L70.21-4.93Q64.64 1.28 54.53 1.28L54.53 1.28L54.53 1.28Q47.55 1.28 42.30-1.02L42.30-1.02L42.30-1.02Q40.45-1.86 39.10-3.07ZM55.36-22.40L51.97-3.65L51.97-3.65Q53.31-2.50 54.98-2.50L54.98-2.50L54.98-2.50Q56.64-2.50 57.60-3.14L57.60-3.14L57.60-3.14Q58.56-3.78 59.26-5.06L59.26-5.06L59.26-5.06Q61.18-8.51 62.72-19.07L62.72-19.07L62.72-19.07Q63.17-22.08 63.17-25.09L63.17-25.09L63.17-25.09Q63.17-28.10 62.50-29.06L62.50-29.06L62.50-29.06Q61.82-30.02 60.54-30.02L60.54-30.02L60.54-30.02Q56.64-30.02 55.36-22.40L55.36-22.40ZM93.18 1.28L93.18 1.28L93.18 1.28Q79.10 1.28 79.10-11.97L79.10-11.97L79.10-11.97Q79.10-21.38 84.29-27.46L84.29-27.46L84.29-27.46Q89.79-33.92 99.33-33.92L99.33-33.92L99.33-33.92Q106.24-33.92 109.76-30.72L109.76-30.72L109.76-30.72Q113.28-27.52 113.28-20.80L113.28-20.80L113.28-20.80Q113.28-10.56 107.78-4.61L107.78-4.61L107.78-4.61Q102.40 1.28 93.18 1.28ZM94.85-26.56L94.85-26.56L94.85-26.56Q94.08-24.83 93.47-22.24L93.47-22.24L93.47-22.24Q92.86-19.65 92.10-15.55L92.10-15.55L92.10-15.55Q91.33-11.46 91.33-6.40L91.33-6.40L91.33-6.40Q91.33-4.74 91.87-3.65L91.87-3.65L91.87-3.65Q92.42-2.56 93.89-2.56L93.89-2.56L93.89-2.56Q95.36-2.56 96.29-3.26L96.29-3.26L96.29-3.26Q97.22-3.97 97.92-5.63L97.92-5.63L97.92-5.63Q99.20-8.58 100.22-14.05L100.22-14.05L100.22-14.05Q101.25-19.52 101.34-21.89L101.34-21.89L101.34-21.89Q101.44-24.26 101.44-26.02L101.44-26.02L101.44-26.02Q101.44-27.78 100.93-28.93L100.93-28.93L100.93-28.93Q100.42-30.08 98.98-30.08L98.98-30.08L98.98-30.08Q97.54-30.08 96.58-29.18L96.58-29.18L96.58-29.18Q95.62-28.29 94.85-26.56ZM137.60-2.69L137.60-2.69L137.60-2.69Q134.53 1.28 126.91 1.28L126.91 1.28L126.91 1.28Q122.94 1.28 120.06-1.12L120.06-1.12L120.06-1.12Q117.18-3.52 117.18-6.98L117.18-6.98L117.18-6.98Q117.18-8.90 117.38-9.86L117.38-9.86L121.66-32.64L134.66-33.92L129.98-9.22L129.98-9.22Q129.73-7.81 129.73-6.98L129.73-6.98L129.73-6.98Q129.73-3.26 131.97-3.26L131.97-3.26L131.97-3.26Q134.46-3.26 136.26-6.66L136.26-6.66L136.26-6.66Q136.83-7.74 137.09-9.15L137.09-9.15L141.63-32.64L154.24-33.92L149.50-8.96L149.50-8.96Q149.31-8 149.31-6.98L149.31-6.98L149.31-6.98Q149.31-5.95 149.89-4.83L149.89-4.83L149.89-4.83Q150.46-3.71 152.32-3.46L152.32-3.46L152.32-3.46Q151.94-1.92 150.59-0.90L150.59-0.90L150.59-0.90Q147.78 1.28 144.74 1.28L144.74 1.28L144.74 1.28Q141.70 1.28 139.90 0.19L139.90 0.19L139.90 0.19Q138.11-0.90 137.60-2.69ZM158.72-6.40L158.72-6.40L158.72-6.40Q158.72-8.13 159.62-12.48L159.62-12.48L163.01-29.76L159.23-29.76L159.49-31.68L159.49-31.68Q167.17-33.98 174.59-39.62L174.59-39.62L177.66-39.62L176.13-32.64L181.12-32.64L180.54-29.76L175.62-29.76L172.35-12.48L172.35-12.48Q171.52-8.51 171.52-7.17L171.52-7.17L171.52-7.17Q171.52-4.10 174.21-3.46L174.21-3.46L174.21-3.46Q173.57-1.28 171.26 0L171.26 0L171.26 0Q168.96 1.28 165.70 1.28L165.70 1.28L165.70 1.28Q162.43 1.28 160.58-0.77L160.58-0.77L160.58-0.77Q158.72-2.82 158.72-6.40ZM195.20-9.47L195.20-9.47L195.20-9.47Q195.20-11.97 195.84-15.17L195.84-15.17L201.02-42.24L215.17-42.24L210.05-14.98L210.05-14.98Q209.47-11.97 209.47-9.76L209.47-9.76L209.47-9.76Q209.47-7.55 210.40-6.40L210.40-6.40L210.40-6.40Q211.33-5.25 213.06-5.25L213.06-5.25L213.06-5.25Q214.78-5.25 215.87-5.70L215.87-5.70L215.87-5.70Q216.96-6.14 217.86-7.23L217.86-7.23L217.86-7.23Q219.58-9.41 220.67-14.98L220.67-14.98L225.86-42.24L235.52-42.24L230.40-15.04L230.40-15.04Q228.61-5.95 223.68-2.30L223.68-2.30L223.68-2.30Q218.88 1.28 209.41 1.28L209.41 1.28L209.41 1.28Q202.30 1.28 198.53-1.79L198.53-1.79L198.53-1.79Q195.20-4.48 195.20-9.47ZM255.94-22.46L255.94-22.46L255.94-22.46Q256.83-24.83 256.83-26.88L256.83-26.88L256.83-26.88Q256.83-30.66 253.76-30.66L253.76-30.66L253.76-30.66Q252.16-30.66 250.85-29.22L250.85-29.22L250.85-29.22Q249.54-27.78 249.54-25.98L249.54-25.98L249.54-25.98Q249.54-24.70 250.56-23.68L250.56-23.68L250.56-23.68Q252.03-22.27 255.81-19.97L255.81-19.97L255.81-19.97Q259.58-17.66 261.02-15.78L261.02-15.78L261.02-15.78Q262.46-13.89 262.46-11.30L262.46-11.30L262.46-11.30Q262.46-8.70 261.22-6.34L261.22-6.34L261.22-6.34Q259.97-3.97 257.73-2.30L257.73-2.30L257.73-2.30Q252.93 1.28 245.25 1.28L245.25 1.28L245.25 1.28Q241.09 1.28 237.89-0.90L237.89-0.90L237.89-0.90Q234.69-3.01 234.69-5.50L234.69-5.50L234.69-5.50Q234.69-8 236.51-9.47L236.51-9.47L236.51-9.47Q238.34-10.94 241.02-10.94L241.02-10.94L241.02-10.94Q243.71-10.94 245.38-9.92L245.38-9.92L245.38-9.92Q244.54-7.81 244.54-6.40L244.54-6.40L244.54-6.40Q244.54-2.18 248.13-2.18L248.13-2.18L248.13-2.18Q249.66-2.18 250.69-3.14L250.69-3.14L250.69-3.14Q251.71-4.10 251.71-5.76L251.71-5.76L251.71-5.76Q251.71-9.02 246.21-12.48L246.21-12.48L246.21-12.48Q241.73-15.42 240.70-16.58L240.70-16.58L240.70-16.58Q238.98-18.62 238.98-21.18L238.98-21.18L238.98-21.18Q238.98-23.74 240.19-26.18L240.19-26.18L240.19-26.18Q241.41-28.61 243.65-30.34L243.65-30.34L243.65-30.34Q248.32-33.92 256.45-33.92L256.45-33.92L256.45-33.92Q260.61-33.92 263.07-32.26L263.07-32.26L263.07-32.26Q265.54-30.59 265.54-27.78L265.54-27.78L265.54-27.78Q265.54-24.96 263.84-23.36L263.84-23.36L263.84-23.36Q262.14-21.76 259.07-21.76L259.07-21.76L259.07-21.76Q256.96-21.76 255.94-22.46Z" fill="#ccc"></path></g></g><style>text {
  font-size: 64px;
  font-family: Arial Black;
  dominant-baseline: central;
  text-anchor: middle;
}</style></svg>